<?xml version="1.0" encoding="utf-8"?>
<!DOCTYPE svg PUBLIC "-//W3C//DTD SVG 1.1//EN" "http://www.w3.org/Graphics/SVG/1.1/DTD/svg11.dtd">
<svg version="1.1" id="Layer_1" xmlns="http://www.w3.org/2000/svg" xmlns:xlink="http://www.w3.org/1999/xlink" x="0px" y="0px" 
	 width="846.0px" height="1200.0px" viewBox="0 0 846.0 1200.0" enable-background="new 0 0 846.0 1200.0" xml:space="preserve">
<marker id = "pointMarker" viewBox = "0 0 12 12" refX = "12" refY = "6" markerWidth = "3" markerHeight = "3" stroke = "green" stroke-width = "2" fill = "none" orient = "auto"> 
<circle cx = "6" cy = "6" r = "5"/>
</marker>
<line fill="none" stroke="#FF0000" stroke-miterlimit="5" x1="423.0" y1="NaN" x2="106.97674418604643" y2="493.0232558139535" />
<line fill="none" stroke="#000000" marker-start = "url(#pointMarker)" x1="106.97674418604643" y1="493.0232558139535" x2="113.95348837209303" y2="486.04651162790697" />
<line fill="none" stroke="#000000" marker-start = "url(#pointMarker)" x1="113.95348837209303" y1="486.04651162790697" x2="120.93023255813956" y2="479.06976744186045" />
<line fill="none" stroke="#000000" marker-start = "url(#pointMarker)" x1="120.93023255813956" y1="479.06976744186045" x2="127.90697674418598" y2="472.09302325581393" />
<line fill="none" stroke="#000000" marker-start = "url(#pointMarker)" x1="127.90697674418598" y1="472.09302325581393" x2="134.88372093023256" y2="465.1162790697674" />
<line fill="none" stroke="#000000" marker-start = "url(#pointMarker)" x1="134.88372093023256" y1="465.1162790697674" x2="141.86046511627922" y2="458.13953488372084" />
<line fill="none" stroke="#000000" marker-start = "url(#pointMarker)" x1="141.86046511627922" y1="458.13953488372084" x2="148.8372093023257" y2="451.1627906976743" />
<line fill="none" stroke="#000000" marker-start = "url(#pointMarker)" x1="148.8372093023257" y1="451.1627906976743" x2="155.81395348837205" y2="444.18604651162786" />
<line fill="none" stroke="#000000" marker-start = "url(#pointMarker)" x1="155.81395348837205" y1="444.18604651162786" x2="162.7906976744187" y2="437.20930232558135" />
<line fill="none" stroke="#000000" marker-start = "url(#pointMarker)" x1="162.7906976744187" y1="437.20930232558135" x2="169.76744186046517" y2="430.23255813953483" />
<line fill="none" stroke="#000000" marker-start = "url(#pointMarker)" x1="169.76744186046517" y1="430.23255813953483" x2="176.7441860465117" y2="423.25581395348826" />
<line fill="none" stroke="#000000" marker-start = "url(#pointMarker)" x1="176.7441860465117" y1="423.25581395348826" x2="183.72093023255815" y2="416.2790697674418" />
<line fill="none" stroke="#000000" marker-start = "url(#pointMarker)" x1="183.72093023255815" y1="416.2790697674418" x2="190.6976744186047" y2="409.30232558139534" />
<line fill="none" stroke="#000000" marker-start = "url(#pointMarker)" x1="190.6976744186047" y1="409.30232558139534" x2="197.6744186046512" y2="402.32558139534876" />
<line fill="none" stroke="#000000" marker-start = "url(#pointMarker)" x1="197.6744186046512" y1="402.32558139534876" x2="204.65116279069784" y2="395.34883720930225" />
<line fill="none" stroke="#000000" marker-start = "url(#pointMarker)" x1="204.65116279069784" y1="395.34883720930225" x2="211.62790697674427" y2="388.37209302325573" />
<line fill="none" stroke="#000000" marker-start = "url(#pointMarker)" x1="211.62790697674427" y1="388.37209302325573" x2="218.60465116279082" y2="381.39534883720916" />
<line fill="none" stroke="#000000" marker-start = "url(#pointMarker)" x1="218.60465116279082" y1="381.39534883720916" x2="225.58139534883728" y2="374.4186046511627" />
<line fill="none" stroke="#000000" marker-start = "url(#pointMarker)" x1="225.58139534883728" y1="374.4186046511627" x2="232.5581395348838" y2="367.4418604651162" />
<line fill="none" stroke="#000000" marker-start = "url(#pointMarker)" x1="232.5581395348838" y1="367.4418604651162" x2="239.53488372093028" y2="360.46511627906966" />
<line fill="none" stroke="#000000" marker-start = "url(#pointMarker)" x1="239.53488372093028" y1="360.46511627906966" x2="246.5116279069769" y2="353.4883720930231" />
<line fill="none" stroke="#000000" marker-start = "url(#pointMarker)" x1="246.5116279069769" y1="353.4883720930231" x2="253.4883720930234" y2="346.51162790697657" />
<line fill="none" stroke="#000000" marker-start = "url(#pointMarker)" x1="253.4883720930234" y1="346.51162790697657" x2="260.4651162790699" y2="339.53488372093005" />
<line fill="none" stroke="#000000" marker-start = "url(#pointMarker)" x1="260.4651162790699" y1="339.53488372093005" x2="267.4418604651164" y2="332.55813953488354" />
<line fill="none" stroke="#000000" marker-start = "url(#pointMarker)" x1="267.4418604651164" y1="332.55813953488354" x2="274.4186046511629" y2="325.5813953488371" />
<line fill="none" stroke="#000000" marker-start = "url(#pointMarker)" x1="274.4186046511629" y1="325.5813953488371" x2="281.3953488372095" y2="318.60465116279056" />
<line fill="none" stroke="#000000" marker-start = "url(#pointMarker)" x1="281.3953488372095" y1="318.60465116279056" x2="288.37209302325596" y2="311.6279069767441" />
<line fill="none" stroke="#000000" marker-start = "url(#pointMarker)" x1="288.37209302325596" y1="311.6279069767441" x2="295.3488372093025" y2="304.6511627906976" />
<line fill="none" stroke="#000000" marker-start = "url(#pointMarker)" x1="295.3488372093025" y1="304.6511627906976" x2="302.32558139534905" y2="297.67441860465095" />
<line fill="none" stroke="#000000" marker-start = "url(#pointMarker)" x1="302.32558139534905" y1="297.67441860465095" x2="309.30232558139545" y2="290.6976744186045" />
<line fill="none" stroke="#000000" marker-start = "url(#pointMarker)" x1="309.30232558139545" y1="290.6976744186045" x2="316.279069767442" y2="283.720930232558" />
<line fill="none" stroke="#000000" marker-start = "url(#pointMarker)" x1="316.279069767442" y1="283.720930232558" x2="323.2558139534886" y2="276.74418604651135" />
<line fill="none" stroke="#000000" marker-start = "url(#pointMarker)" x1="323.2558139534886" y1="276.74418604651135" x2="330.23255813953506" y2="269.7674418604649" />
<line fill="none" stroke="#000000" marker-start = "url(#pointMarker)" x1="330.23255813953506" y1="269.7674418604649" x2="337.2093023255816" y2="262.79069767441837" />
<line fill="none" stroke="#000000" marker-start = "url(#pointMarker)" x1="337.2093023255816" y1="262.79069767441837" x2="344.1860465116281" y2="255.8139534883719" />
<line fill="none" stroke="#000000" marker-start = "url(#pointMarker)" x1="344.1860465116281" y1="255.8139534883719" x2="351.16279069767455" y2="248.83720930232545" />
<line fill="none" stroke="#000000" marker-start = "url(#pointMarker)" x1="351.16279069767455" y1="248.83720930232545" x2="358.1395348837211" y2="241.8604651162788" />
<line fill="none" stroke="#000000" marker-start = "url(#pointMarker)" x1="358.1395348837211" y1="241.8604651162788" x2="365.11627906976764" y2="234.88372093023236" />
<line fill="none" stroke="#000000" marker-start = "url(#pointMarker)" x1="365.11627906976764" y1="234.88372093023236" x2="372.09302325581416" y2="227.90697674418587" />
<line fill="none" stroke="#000000" marker-start = "url(#pointMarker)" x1="372.09302325581416" y1="227.90697674418587" x2="379.06976744186073" y2="220.93023255813927" />
<line fill="none" stroke="#000000" marker-start = "url(#pointMarker)" x1="379.06976744186073" y1="220.93023255813927" x2="386.04651162790714" y2="213.9534883720928" />
<line fill="none" stroke="#000000" marker-start = "url(#pointMarker)" x1="386.04651162790714" y1="213.9534883720928" x2="393.02325581395377" y2="206.97674418604618" />
<line fill="none" stroke="#000000" marker-start = "url(#pointMarker)" x1="393.02325581395377" y1="206.97674418604618" x2="400.0000000000003" y2="199.99999999999963" />
<line fill="none" stroke="#000000" marker-start = "url(#pointMarker)" x1="400.0000000000003" y1="199.99999999999963" x2="406.9767441860465" y2="206.97674418604652" />
<line fill="none" stroke="#000000" marker-start = "url(#pointMarker)" x1="406.9767441860465" y1="206.97674418604652" x2="413.95348837209303" y2="213.95348837209306" />
<line fill="none" stroke="#000000" marker-start = "url(#pointMarker)" x1="413.95348837209303" y1="213.95348837209306" x2="420.93023255813955" y2="220.93023255813955" />
<line fill="none" stroke="#000000" marker-start = "url(#pointMarker)" x1="420.93023255813955" y1="220.93023255813955" x2="427.90697674418607" y2="227.90697674418604" />
<line fill="none" stroke="#000000" marker-start = "url(#pointMarker)" x1="427.90697674418607" y1="227.90697674418604" x2="434.88372093023264" y2="234.88372093023258" />
<line fill="none" stroke="#000000" marker-start = "url(#pointMarker)" x1="434.88372093023264" y1="234.88372093023258" x2="441.86046511627916" y2="241.86046511627907" />
<line fill="none" stroke="#000000" marker-start = "url(#pointMarker)" x1="441.86046511627916" y1="241.86046511627907" x2="448.8372093023256" y2="248.83720930232556" />
<line fill="none" stroke="#000000" marker-start = "url(#pointMarker)" x1="448.8372093023256" y1="248.83720930232556" x2="455.8139534883722" y2="255.81395348837205" />
<line fill="none" stroke="#000000" marker-start = "url(#pointMarker)" x1="455.8139534883722" y1="255.81395348837205" x2="462.79069767441865" y2="262.7906976744186" />
<line fill="none" stroke="#000000" marker-start = "url(#pointMarker)" x1="462.79069767441865" y1="262.7906976744186" x2="469.7674418604651" y2="269.76744186046517" />
<line fill="none" stroke="#000000" marker-start = "url(#pointMarker)" x1="469.7674418604651" y1="269.76744186046517" x2="476.7441860465117" y2="276.74418604651163" />
<line fill="none" stroke="#000000" marker-start = "url(#pointMarker)" x1="476.7441860465117" y1="276.74418604651163" x2="483.7209302325582" y2="283.7209302325582" />
<line fill="none" stroke="#000000" marker-start = "url(#pointMarker)" x1="483.7209302325582" y1="283.7209302325582" x2="490.6976744186047" y2="290.6976744186046" />
<line fill="none" stroke="#000000" marker-start = "url(#pointMarker)" x1="490.6976744186047" y1="290.6976744186046" x2="497.6744186046512" y2="297.6744186046513" />
<line fill="none" stroke="#000000" marker-start = "url(#pointMarker)" x1="497.6744186046512" y1="297.6744186046513" x2="504.65116279069775" y2="304.65116279069775" />
<line fill="none" stroke="#000000" marker-start = "url(#pointMarker)" x1="504.65116279069775" y1="304.65116279069775" x2="511.6279069767442" y2="311.62790697674427" />
<line fill="none" stroke="#000000" marker-start = "url(#pointMarker)" x1="511.6279069767442" y1="311.62790697674427" x2="518.6046511627908" y2="318.60465116279073" />
<line fill="none" stroke="#000000" marker-start = "url(#pointMarker)" x1="518.6046511627908" y1="318.60465116279073" x2="525.5813953488373" y2="325.5813953488372" />
<line fill="none" stroke="#000000" marker-start = "url(#pointMarker)" x1="525.5813953488373" y1="325.5813953488372" x2="532.5581395348837" y2="332.5581395348839" />
<line fill="none" stroke="#000000" marker-start = "url(#pointMarker)" x1="532.5581395348837" y1="332.5581395348839" x2="539.5348837209303" y2="339.5348837209302" />
<line fill="none" stroke="#000000" marker-start = "url(#pointMarker)" x1="539.5348837209303" y1="339.5348837209302" x2="546.5116279069769" y2="346.51162790697697" />
<line fill="none" stroke="#000000" marker-start = "url(#pointMarker)" x1="546.5116279069769" y1="346.51162790697697" x2="553.4883720930235" y2="353.4883720930233" />
<line fill="none" stroke="#000000" marker-start = "url(#pointMarker)" x1="553.4883720930235" y1="353.4883720930233" x2="560.4651162790699" y2="360.46511627906983" />
<line fill="none" stroke="#000000" marker-start = "url(#pointMarker)" x1="560.4651162790699" y1="360.46511627906983" x2="567.4418604651164" y2="367.4418604651164" />
<line fill="none" stroke="#000000" marker-start = "url(#pointMarker)" x1="567.4418604651164" y1="367.4418604651164" x2="574.4186046511629" y2="374.41860465116287" />
<line fill="none" stroke="#000000" marker-start = "url(#pointMarker)" x1="574.4186046511629" y1="374.41860465116287" x2="581.3953488372094" y2="381.3953488372093" />
<line fill="none" stroke="#000000" marker-start = "url(#pointMarker)" x1="581.3953488372094" y1="381.3953488372093" x2="588.3720930232561" y2="388.3720930232559" />
<line fill="none" stroke="#000000" marker-start = "url(#pointMarker)" x1="588.3720930232561" y1="388.3720930232559" x2="595.3488372093025" y2="395.3488372093024" />
<line fill="none" stroke="#000000" marker-start = "url(#pointMarker)" x1="595.3488372093025" y1="395.3488372093024" x2="602.325581395349" y2="402.325581395349" />
<line fill="none" stroke="#000000" marker-start = "url(#pointMarker)" x1="602.325581395349" y1="402.325581395349" x2="609.3023255813955" y2="409.30232558139556" />
<line fill="none" stroke="#000000" marker-start = "url(#pointMarker)" x1="609.3023255813955" y1="409.30232558139556" x2="616.2790697674419" y2="416.2790697674421" />
<line fill="none" stroke="#000000" marker-start = "url(#pointMarker)" x1="616.2790697674419" y1="416.2790697674421" x2="623.2558139534884" y2="423.25581395348865" />
<line fill="none" stroke="#000000" marker-start = "url(#pointMarker)" x1="623.2558139534884" y1="423.25581395348865" x2="630.2325581395352" y2="430.232558139535" />
<line fill="none" stroke="#000000" marker-start = "url(#pointMarker)" x1="630.2325581395352" y1="430.232558139535" x2="637.2093023255817" y2="437.2093023255814" />
<line fill="none" stroke="#000000" marker-start = "url(#pointMarker)" x1="637.2093023255817" y1="437.2093023255814" x2="644.1860465116281" y2="444.1860465116282" />
<line fill="none" stroke="#000000" marker-start = "url(#pointMarker)" x1="644.1860465116281" y1="444.1860465116282" x2="651.1627906976747" y2="451.16279069767467" />
<line fill="none" stroke="#000000" marker-start = "url(#pointMarker)" x1="651.1627906976747" y1="451.16279069767467" x2="658.1395348837211" y2="458.1395348837211" />
<line fill="none" stroke="#000000" marker-start = "url(#pointMarker)" x1="658.1395348837211" y1="458.1395348837211" x2="665.1162790697678" y2="465.11627906976753" />
<line fill="none" stroke="#000000" marker-start = "url(#pointMarker)" x1="665.1162790697678" y1="465.11627906976753" x2="672.0930232558142" y2="472.0930232558142" />
<line fill="none" stroke="#000000" marker-start = "url(#pointMarker)" x1="672.0930232558142" y1="472.0930232558142" x2="679.0697674418607" y2="479.0697674418606" />
<line fill="none" stroke="#000000" marker-start = "url(#pointMarker)" x1="679.0697674418607" y1="479.0697674418606" x2="686.0465116279071" y2="486.04651162790725" />
<line fill="none" stroke="#000000" marker-start = "url(#pointMarker)" x1="686.0465116279071" y1="486.04651162790725" x2="693.0232558139536" y2="493.02325581395377" />
<line fill="none" stroke="#000000" marker-start = "url(#pointMarker)" x1="693.0232558139536" y1="493.02325581395377" x2="700.0000000000001" y2="500.00000000000017" />
<line fill="none" stroke="#FF0000" stroke-miterlimit="5" x1="700.0000000000001" y1="500.00000000000017" x2="200.0" y2="400.0" />
<line fill="none" stroke="#000000" marker-start = "url(#pointMarker)" x1="200.0" y1="400.0" x2="209.7560975609757" y2="399.99999999999994" />
<line fill="none" stroke="#000000" marker-start = "url(#pointMarker)" x1="209.7560975609757" y1="399.99999999999994" x2="219.51219512195118" y2="399.99999999999994" />
<line fill="none" stroke="#000000" marker-start = "url(#pointMarker)" x1="219.51219512195118" y1="399.99999999999994" x2="229.2682926829268" y2="399.99999999999994" />
<line fill="none" stroke="#000000" marker-start = "url(#pointMarker)" x1="229.2682926829268" y1="399.99999999999994" x2="239.0243902439024" y2="400.0" />
<line fill="none" stroke="#000000" marker-start = "url(#pointMarker)" x1="239.0243902439024" y1="400.0" x2="248.78048780487796" y2="400.0" />
<line fill="none" stroke="#000000" marker-start = "url(#pointMarker)" x1="248.78048780487796" y1="400.0" x2="258.5365853658536" y2="399.99999999999994" />
<line fill="none" stroke="#000000" marker-start = "url(#pointMarker)" x1="258.5365853658536" y1="399.99999999999994" x2="268.29268292682923" y2="400.0" />
<line fill="none" stroke="#000000" marker-start = "url(#pointMarker)" x1="268.29268292682923" y1="400.0" x2="278.04878048780483" y2="400.0" />
<line fill="none" stroke="#000000" marker-start = "url(#pointMarker)" x1="278.04878048780483" y1="400.0" x2="287.80487804878044" y2="400.0" />
<line fill="none" stroke="#000000" marker-start = "url(#pointMarker)" x1="287.80487804878044" y1="400.0" x2="297.56097560975604" y2="400.00000000000006" />
<line fill="none" stroke="#000000" marker-start = "url(#pointMarker)" x1="297.56097560975604" y1="400.00000000000006" x2="307.3170731707316" y2="400.0" />
<line fill="none" stroke="#000000" marker-start = "url(#pointMarker)" x1="307.3170731707316" y1="400.0" x2="317.0731707317072" y2="400.0" />
<line fill="none" stroke="#000000" marker-start = "url(#pointMarker)" x1="317.0731707317072" y1="400.0" x2="326.8292682926829" y2="400.00000000000006" />
<line fill="none" stroke="#000000" marker-start = "url(#pointMarker)" x1="326.8292682926829" y1="400.00000000000006" x2="336.58536585365846" y2="400.00000000000006" />
<line fill="none" stroke="#000000" marker-start = "url(#pointMarker)" x1="336.58536585365846" y1="400.00000000000006" x2="346.34146341463406" y2="400.00000000000006" />
<line fill="none" stroke="#000000" marker-start = "url(#pointMarker)" x1="346.34146341463406" y1="400.00000000000006" x2="356.0975609756096" y2="400.0" />
<line fill="none" stroke="#000000" marker-start = "url(#pointMarker)" x1="356.0975609756096" y1="400.0" x2="365.8536585365853" y2="399.99999999999994" />
<line fill="none" stroke="#000000" marker-start = "url(#pointMarker)" x1="365.8536585365853" y1="399.99999999999994" x2="375.6097560975609" y2="399.9999999999999" />
<line fill="none" stroke="#000000" marker-start = "url(#pointMarker)" x1="375.6097560975609" y1="399.9999999999999" x2="385.3658536585365" y2="399.99999999999994" />
<line fill="none" stroke="#000000" marker-start = "url(#pointMarker)" x1="385.3658536585365" y1="399.99999999999994" x2="395.1219512195121" y2="400.00000000000006" />
<line fill="none" stroke="#000000" marker-start = "url(#pointMarker)" x1="395.1219512195121" y1="400.00000000000006" x2="404.87804878048775" y2="400.0" />
<line fill="none" stroke="#000000" marker-start = "url(#pointMarker)" x1="404.87804878048775" y1="400.0" x2="414.63414634146335" y2="400.0" />
<line fill="none" stroke="#000000" marker-start = "url(#pointMarker)" x1="414.63414634146335" y1="400.0" x2="424.3902439024389" y2="400.00000000000006" />
<line fill="none" stroke="#000000" marker-start = "url(#pointMarker)" x1="424.3902439024389" y1="400.00000000000006" x2="434.14634146341456" y2="399.99999999999994" />
<line fill="none" stroke="#000000" marker-start = "url(#pointMarker)" x1="434.14634146341456" y1="399.99999999999994" x2="443.90243902439016" y2="400.0" />
<line fill="none" stroke="#000000" marker-start = "url(#pointMarker)" x1="443.90243902439016" y1="400.0" x2="453.6585365853657" y2="400.00000000000006" />
<line fill="none" stroke="#000000" marker-start = "url(#pointMarker)" x1="453.6585365853657" y1="400.00000000000006" x2="463.4146341463413" y2="400.0" />
<line fill="none" stroke="#000000" marker-start = "url(#pointMarker)" x1="463.4146341463413" y1="400.0" x2="473.1707317073169" y2="400.00000000000006" />
<line fill="none" stroke="#000000" marker-start = "url(#pointMarker)" x1="473.1707317073169" y1="400.00000000000006" x2="482.9268292682925" y2="400.0000000000001" />
<line fill="none" stroke="#000000" marker-start = "url(#pointMarker)" x1="482.9268292682925" y1="400.0000000000001" x2="492.6829268292682" y2="400.0" />
<line fill="none" stroke="#000000" marker-start = "url(#pointMarker)" x1="492.6829268292682" y1="400.0" x2="502.4390243902437" y2="399.99999999999994" />
<line fill="none" stroke="#000000" marker-start = "url(#pointMarker)" x1="502.4390243902437" y1="399.99999999999994" x2="512.1951219512193" y2="400.0" />
<line fill="none" stroke="#000000" marker-start = "url(#pointMarker)" x1="512.1951219512193" y1="400.0" x2="521.9512195121949" y2="400.00000000000006" />
<line fill="none" stroke="#000000" marker-start = "url(#pointMarker)" x1="521.9512195121949" y1="400.00000000000006" x2="531.7073170731705" y2="400.0" />
<line fill="none" stroke="#000000" marker-start = "url(#pointMarker)" x1="531.7073170731705" y1="400.0" x2="541.4634146341461" y2="400.0" />
<line fill="none" stroke="#000000" marker-start = "url(#pointMarker)" x1="541.4634146341461" y1="400.0" x2="551.2195121951218" y2="400.00000000000006" />
<line fill="none" stroke="#000000" marker-start = "url(#pointMarker)" x1="551.2195121951218" y1="400.00000000000006" x2="560.9756097560974" y2="400.0" />
<line fill="none" stroke="#000000" marker-start = "url(#pointMarker)" x1="560.9756097560974" y1="400.0" x2="570.731707317073" y2="400.0" />
<line fill="none" stroke="#000000" marker-start = "url(#pointMarker)" x1="570.731707317073" y1="400.0" x2="580.4878048780486" y2="400.00000000000006" />
<line fill="none" stroke="#000000" marker-start = "url(#pointMarker)" x1="580.4878048780486" y1="400.00000000000006" x2="590.2439024390242" y2="399.99999999999994" />
<line fill="none" stroke="#000000" marker-start = "url(#pointMarker)" x1="590.2439024390242" y1="399.99999999999994" x2="599.9999999999998" y2="399.99999999999994" />
<line fill="none" stroke="#000000" marker-start = "url(#pointMarker)" x1="599.9999999999998" y1="399.99999999999994" x2="600.0" y2="409.7560975609756" />
<line fill="none" stroke="#000000" marker-start = "url(#pointMarker)" x1="600.0" y1="409.7560975609756" x2="600.0000000000001" y2="419.51219512195127" />
<line fill="none" stroke="#000000" marker-start = "url(#pointMarker)" x1="600.0000000000001" y1="419.51219512195127" x2="599.9999999999999" y2="429.26829268292687" />
<line fill="none" stroke="#000000" marker-start = "url(#pointMarker)" x1="599.9999999999999" y1="429.26829268292687" x2="600.0" y2="439.0243902439024" />
<line fill="none" stroke="#000000" marker-start = "url(#pointMarker)" x1="600.0" y1="439.0243902439024" x2="600.0" y2="448.7804878048781" />
<line fill="none" stroke="#000000" marker-start = "url(#pointMarker)" x1="600.0" y1="448.7804878048781" x2="600.0" y2="458.53658536585357" />
<line fill="none" stroke="#000000" marker-start = "url(#pointMarker)" x1="600.0" y1="458.53658536585357" x2="600.0" y2="468.2926829268293" />
<line fill="none" stroke="#000000" marker-start = "url(#pointMarker)" x1="600.0" y1="468.2926829268293" x2="600.0" y2="478.04878048780483" />
<line fill="none" stroke="#000000" marker-start = "url(#pointMarker)" x1="600.0" y1="478.04878048780483" x2="600.0" y2="487.8048780487804" />
<line fill="none" stroke="#000000" marker-start = "url(#pointMarker)" x1="600.0" y1="487.8048780487804" x2="600.0000000000001" y2="497.5609756097561" />
<line fill="none" stroke="#000000" marker-start = "url(#pointMarker)" x1="600.0000000000001" y1="497.5609756097561" x2="600.0" y2="507.3170731707317" />
<line fill="none" stroke="#000000" marker-start = "url(#pointMarker)" x1="600.0" y1="507.3170731707317" x2="600.0" y2="517.0731707317073" />
<line fill="none" stroke="#000000" marker-start = "url(#pointMarker)" x1="600.0" y1="517.0731707317073" x2="599.9999999999999" y2="526.8292682926829" />
<line fill="none" stroke="#000000" marker-start = "url(#pointMarker)" x1="599.9999999999999" y1="526.8292682926829" x2="600.0000000000001" y2="536.5853658536583" />
<line fill="none" stroke="#000000" marker-start = "url(#pointMarker)" x1="600.0000000000001" y1="536.5853658536583" x2="600.0" y2="546.3414634146341" />
<line fill="none" stroke="#000000" marker-start = "url(#pointMarker)" x1="600.0" y1="546.3414634146341" x2="600.0" y2="556.0975609756097" />
<line fill="none" stroke="#000000" marker-start = "url(#pointMarker)" x1="600.0" y1="556.0975609756097" x2="600.0" y2="565.8536585365853" />
<line fill="none" stroke="#000000" marker-start = "url(#pointMarker)" x1="600.0" y1="565.8536585365853" x2="600.0" y2="575.6097560975608" />
<line fill="none" stroke="#000000" marker-start = "url(#pointMarker)" x1="600.0" y1="575.6097560975608" x2="599.9999999999999" y2="585.3658536585365" />
<line fill="none" stroke="#000000" marker-start = "url(#pointMarker)" x1="599.9999999999999" y1="585.3658536585365" x2="600.0" y2="595.121951219512" />
<line fill="none" stroke="#000000" marker-start = "url(#pointMarker)" x1="600.0" y1="595.121951219512" x2="600.0" y2="604.8780487804877" />
<line fill="none" stroke="#000000" marker-start = "url(#pointMarker)" x1="600.0" y1="604.8780487804877" x2="599.9999999999999" y2="614.6341463414634" />
<line fill="none" stroke="#000000" marker-start = "url(#pointMarker)" x1="599.9999999999999" y1="614.6341463414634" x2="600.0000000000001" y2="624.3902439024389" />
<line fill="none" stroke="#000000" marker-start = "url(#pointMarker)" x1="600.0000000000001" y1="624.3902439024389" x2="599.9999999999999" y2="634.1463414634145" />
<line fill="none" stroke="#000000" marker-start = "url(#pointMarker)" x1="599.9999999999999" y1="634.1463414634145" x2="600.0000000000001" y2="643.9024390243901" />
<line fill="none" stroke="#000000" marker-start = "url(#pointMarker)" x1="600.0000000000001" y1="643.9024390243901" x2="600.0" y2="653.6585365853656" />
<line fill="none" stroke="#000000" marker-start = "url(#pointMarker)" x1="600.0" y1="653.6585365853656" x2="600.0" y2="663.4146341463413" />
<line fill="none" stroke="#000000" marker-start = "url(#pointMarker)" x1="600.0" y1="663.4146341463413" x2="600.0" y2="673.1707317073169" />
<line fill="none" stroke="#000000" marker-start = "url(#pointMarker)" x1="600.0" y1="673.1707317073169" x2="600.0000000000001" y2="682.9268292682925" />
<line fill="none" stroke="#000000" marker-start = "url(#pointMarker)" x1="600.0000000000001" y1="682.9268292682925" x2="600.0000000000001" y2="692.6829268292681" />
<line fill="none" stroke="#000000" marker-start = "url(#pointMarker)" x1="600.0000000000001" y1="692.6829268292681" x2="600.0000000000001" y2="702.4390243902436" />
<line fill="none" stroke="#000000" marker-start = "url(#pointMarker)" x1="600.0000000000001" y1="702.4390243902436" x2="600.0" y2="712.1951219512194" />
<line fill="none" stroke="#000000" marker-start = "url(#pointMarker)" x1="600.0" y1="712.1951219512194" x2="600.0" y2="721.9512195121949" />
<line fill="none" stroke="#000000" marker-start = "url(#pointMarker)" x1="600.0" y1="721.9512195121949" x2="599.9999999999999" y2="731.7073170731707" />
<line fill="none" stroke="#000000" marker-start = "url(#pointMarker)" x1="599.9999999999999" y1="731.7073170731707" x2="600.0" y2="741.4634146341461" />
<line fill="none" stroke="#000000" marker-start = "url(#pointMarker)" x1="600.0" y1="741.4634146341461" x2="600.0" y2="751.2195121951218" />
<line fill="none" stroke="#000000" marker-start = "url(#pointMarker)" x1="600.0" y1="751.2195121951218" x2="600.0000000000001" y2="760.9756097560974" />
<line fill="none" stroke="#000000" marker-start = "url(#pointMarker)" x1="600.0000000000001" y1="760.9756097560974" x2="600.0" y2="770.731707317073" />
<line fill="none" stroke="#000000" marker-start = "url(#pointMarker)" x1="600.0" y1="770.731707317073" x2="599.9999999999999" y2="780.4878048780486" />
<line fill="none" stroke="#000000" marker-start = "url(#pointMarker)" x1="599.9999999999999" y1="780.4878048780486" x2="600.0" y2="790.2439024390242" />
<line fill="none" stroke="#000000" marker-start = "url(#pointMarker)" x1="600.0" y1="790.2439024390242" x2="599.9999999999999" y2="799.9999999999998" />
<line fill="none" stroke="#000000" marker-start = "url(#pointMarker)" x1="599.9999999999999" y1="799.9999999999998" x2="590.2439024390244" y2="800.0" />
<line fill="none" stroke="#000000" marker-start = "url(#pointMarker)" x1="590.2439024390244" y1="800.0" x2="580.4878048780488" y2="800.0" />
<line fill="none" stroke="#000000" marker-start = "url(#pointMarker)" x1="580.4878048780488" y1="800.0" x2="570.7317073170733" y2="800.0" />
<line fill="none" stroke="#000000" marker-start = "url(#pointMarker)" x1="570.7317073170733" y1="800.0" x2="560.9756097560976" y2="800.0" />
<line fill="none" stroke="#000000" marker-start = "url(#pointMarker)" x1="560.9756097560976" y1="800.0" x2="551.2195121951219" y2="800.0000000000001" />
<line fill="none" stroke="#000000" marker-start = "url(#pointMarker)" x1="551.2195121951219" y1="800.0000000000001" x2="541.4634146341464" y2="800.0" />
<line fill="none" stroke="#000000" marker-start = "url(#pointMarker)" x1="541.4634146341464" y1="800.0" x2="531.7073170731708" y2="800.0" />
<line fill="none" stroke="#000000" marker-start = "url(#pointMarker)" x1="531.7073170731708" y1="800.0" x2="521.951219512195" y2="800.0" />
<line fill="none" stroke="#000000" marker-start = "url(#pointMarker)" x1="521.951219512195" y1="800.0" x2="512.1951219512196" y2="800.0" />
<line fill="none" stroke="#000000" marker-start = "url(#pointMarker)" x1="512.1951219512196" y1="800.0" x2="502.4390243902439" y2="800.0" />
<line fill="none" stroke="#000000" marker-start = "url(#pointMarker)" x1="502.4390243902439" y1="800.0" x2="492.68292682926835" y2="800.0" />
<line fill="none" stroke="#000000" marker-start = "url(#pointMarker)" x1="492.68292682926835" y1="800.0" x2="482.92682926829275" y2="799.9999999999999" />
<line fill="none" stroke="#000000" marker-start = "url(#pointMarker)" x1="482.92682926829275" y1="799.9999999999999" x2="473.1707317073171" y2="800.0" />
<line fill="none" stroke="#000000" marker-start = "url(#pointMarker)" x1="473.1707317073171" y1="800.0" x2="463.4146341463414" y2="800.0" />
<line fill="none" stroke="#000000" marker-start = "url(#pointMarker)" x1="463.4146341463414" y1="800.0" x2="453.6585365853658" y2="800.0" />
<line fill="none" stroke="#000000" marker-start = "url(#pointMarker)" x1="453.6585365853658" y1="800.0" x2="443.90243902439033" y2="799.9999999999999" />
<line fill="none" stroke="#000000" marker-start = "url(#pointMarker)" x1="443.90243902439033" y1="799.9999999999999" x2="434.1463414634147" y2="800.0" />
<line fill="none" stroke="#000000" marker-start = "url(#pointMarker)" x1="434.1463414634147" y1="800.0" x2="424.3902439024391" y2="800.0" />
<line fill="none" stroke="#000000" marker-start = "url(#pointMarker)" x1="424.3902439024391" y1="800.0" x2="414.63414634146363" y2="800.0" />
<line fill="none" stroke="#000000" marker-start = "url(#pointMarker)" x1="414.63414634146363" y1="800.0" x2="404.8780487804879" y2="800.0" />
<line fill="none" stroke="#000000" marker-start = "url(#pointMarker)" x1="404.8780487804879" y1="800.0" x2="395.12195121951225" y2="800.0" />
<line fill="none" stroke="#000000" marker-start = "url(#pointMarker)" x1="395.12195121951225" y1="800.0" x2="385.36585365853676" y2="800.0" />
<line fill="none" stroke="#000000" marker-start = "url(#pointMarker)" x1="385.36585365853676" y1="800.0" x2="375.60975609756105" y2="800.0000000000001" />
<line fill="none" stroke="#000000" marker-start = "url(#pointMarker)" x1="375.60975609756105" y1="800.0000000000001" x2="365.8536585365855" y2="800.0" />
<line fill="none" stroke="#000000" marker-start = "url(#pointMarker)" x1="365.8536585365855" y1="800.0" x2="356.09756097560984" y2="799.9999999999999" />
<line fill="none" stroke="#000000" marker-start = "url(#pointMarker)" x1="356.09756097560984" y1="799.9999999999999" x2="346.34146341463423" y2="800.0" />
<line fill="none" stroke="#000000" marker-start = "url(#pointMarker)" x1="346.34146341463423" y1="800.0" x2="336.58536585365863" y2="800.0" />
<line fill="none" stroke="#000000" marker-start = "url(#pointMarker)" x1="336.58536585365863" y1="800.0" x2="326.82926829268314" y2="800.0" />
<line fill="none" stroke="#000000" marker-start = "url(#pointMarker)" x1="326.82926829268314" y1="800.0" x2="317.0731707317075" y2="800.0" />
<line fill="none" stroke="#000000" marker-start = "url(#pointMarker)" x1="317.0731707317075" y1="800.0" x2="307.31707317073193" y2="800.0000000000001" />
<line fill="none" stroke="#000000" marker-start = "url(#pointMarker)" x1="307.31707317073193" y1="800.0000000000001" x2="297.56097560975627" y2="800.0" />
<line fill="none" stroke="#000000" marker-start = "url(#pointMarker)" x1="297.56097560975627" y1="800.0" x2="287.80487804878067" y2="800.0" />
<line fill="none" stroke="#000000" marker-start = "url(#pointMarker)" x1="287.80487804878067" y1="800.0" x2="278.04878048780506" y2="800.0000000000001" />
<line fill="none" stroke="#000000" marker-start = "url(#pointMarker)" x1="278.04878048780506" y1="800.0000000000001" x2="268.2926829268294" y2="800.0" />
<line fill="none" stroke="#000000" marker-start = "url(#pointMarker)" x1="268.2926829268294" y1="800.0" x2="258.53658536585397" y2="800.0" />
<line fill="none" stroke="#000000" marker-start = "url(#pointMarker)" x1="258.53658536585397" y1="800.0" x2="248.78048780487822" y2="800.0" />
<line fill="none" stroke="#000000" marker-start = "url(#pointMarker)" x1="248.78048780487822" y1="800.0" x2="239.02439024390253" y2="800.0" />
<line fill="none" stroke="#000000" marker-start = "url(#pointMarker)" x1="239.02439024390253" y1="800.0" x2="229.268292682927" y2="800.0" />
<line fill="none" stroke="#000000" marker-start = "url(#pointMarker)" x1="229.268292682927" y1="800.0" x2="219.5121951219515" y2="800.0" />
<line fill="none" stroke="#000000" marker-start = "url(#pointMarker)" x1="219.5121951219515" y1="800.0" x2="209.75609756097586" y2="800.0" />
<line fill="none" stroke="#000000" marker-start = "url(#pointMarker)" x1="209.75609756097586" y1="800.0" x2="200.0" y2="800.0" />
<line fill="none" stroke="#000000" marker-start = "url(#pointMarker)" x1="200.0" y1="800.0" x2="200.00000000000006" y2="790.2439024390244" />
<line fill="none" stroke="#000000" marker-start = "url(#pointMarker)" x1="200.00000000000006" y1="790.2439024390244" x2="200.0" y2="780.4878048780488" />
<line fill="none" stroke="#000000" marker-start = "url(#pointMarker)" x1="200.0" y1="780.4878048780488" x2="200.00000000000006" y2="770.7317073170733" />
<line fill="none" stroke="#000000" marker-start = "url(#pointMarker)" x1="200.00000000000006" y1="770.7317073170733" x2="200.0" y2="760.9756097560976" />
<line fill="none" stroke="#000000" marker-start = "url(#pointMarker)" x1="200.0" y1="760.9756097560976" x2="200.00000000000006" y2="751.219512195122" />
<line fill="none" stroke="#000000" marker-start = "url(#pointMarker)" x1="200.00000000000006" y1="751.219512195122" x2="200.0" y2="741.4634146341464" />
<line fill="none" stroke="#000000" marker-start = "url(#pointMarker)" x1="200.0" y1="741.4634146341464" x2="199.99999999999994" y2="731.7073170731708" />
<line fill="none" stroke="#000000" marker-start = "url(#pointMarker)" x1="199.99999999999994" y1="731.7073170731708" x2="200.0" y2="721.9512195121952" />
<line fill="none" stroke="#000000" marker-start = "url(#pointMarker)" x1="200.0" y1="721.9512195121952" x2="199.99999999999994" y2="712.1951219512196" />
<line fill="none" stroke="#000000" marker-start = "url(#pointMarker)" x1="199.99999999999994" y1="712.1951219512196" x2="200.0" y2="702.439024390244" />
<line fill="none" stroke="#000000" marker-start = "url(#pointMarker)" x1="200.0" y1="702.439024390244" x2="200.00000000000003" y2="692.6829268292684" />
<line fill="none" stroke="#000000" marker-start = "url(#pointMarker)" x1="200.00000000000003" y1="692.6829268292684" x2="200.00000000000003" y2="682.9268292682927" />
<line fill="none" stroke="#000000" marker-start = "url(#pointMarker)" x1="200.00000000000003" y1="682.9268292682927" x2="200.0" y2="673.1707317073171" />
<line fill="none" stroke="#000000" marker-start = "url(#pointMarker)" x1="200.0" y1="673.1707317073171" x2="200.00000000000006" y2="663.4146341463417" />
<line fill="none" stroke="#000000" marker-start = "url(#pointMarker)" x1="200.00000000000006" y1="663.4146341463417" x2="199.99999999999994" y2="653.6585365853659" />
<line fill="none" stroke="#000000" marker-start = "url(#pointMarker)" x1="199.99999999999994" y1="653.6585365853659" x2="200.00000000000003" y2="643.9024390243903" />
<line fill="none" stroke="#000000" marker-start = "url(#pointMarker)" x1="200.00000000000003" y1="643.9024390243903" x2="200.0" y2="634.1463414634147" />
<line fill="none" stroke="#000000" marker-start = "url(#pointMarker)" x1="200.0" y1="634.1463414634147" x2="199.99999999999997" y2="624.3902439024391" />
<line fill="none" stroke="#000000" marker-start = "url(#pointMarker)" x1="199.99999999999997" y1="624.3902439024391" x2="200.00000000000006" y2="614.6341463414634" />
<line fill="none" stroke="#000000" marker-start = "url(#pointMarker)" x1="200.00000000000006" y1="614.6341463414634" x2="199.99999999999997" y2="604.8780487804879" />
<line fill="none" stroke="#000000" marker-start = "url(#pointMarker)" x1="199.99999999999997" y1="604.8780487804879" x2="199.99999999999997" y2="595.1219512195123" />
<line fill="none" stroke="#000000" marker-start = "url(#pointMarker)" x1="199.99999999999997" y1="595.1219512195123" x2="199.99999999999994" y2="585.3658536585367" />
<line fill="none" stroke="#000000" marker-start = "url(#pointMarker)" x1="199.99999999999994" y1="585.3658536585367" x2="200.00000000000003" y2="575.6097560975612" />
<line fill="none" stroke="#000000" marker-start = "url(#pointMarker)" x1="200.00000000000003" y1="575.6097560975612" x2="200.0" y2="565.8536585365855" />
<line fill="none" stroke="#000000" marker-start = "url(#pointMarker)" x1="200.0" y1="565.8536585365855" x2="199.99999999999994" y2="556.0975609756099" />
<line fill="none" stroke="#000000" marker-start = "url(#pointMarker)" x1="199.99999999999994" y1="556.0975609756099" x2="199.99999999999986" y2="546.3414634146343" />
<line fill="none" stroke="#000000" marker-start = "url(#pointMarker)" x1="199.99999999999986" y1="546.3414634146343" x2="199.99999999999997" y2="536.5853658536587" />
<line fill="none" stroke="#000000" marker-start = "url(#pointMarker)" x1="199.99999999999997" y1="536.5853658536587" x2="200.00000000000003" y2="526.8292682926832" />
<line fill="none" stroke="#000000" marker-start = "url(#pointMarker)" x1="200.00000000000003" y1="526.8292682926832" x2="200.0" y2="517.0731707317075" />
<line fill="none" stroke="#000000" marker-start = "url(#pointMarker)" x1="200.0" y1="517.0731707317075" x2="200.0000000000001" y2="507.31707317073193" />
<line fill="none" stroke="#000000" marker-start = "url(#pointMarker)" x1="200.0000000000001" y1="507.31707317073193" x2="200.0" y2="497.5609756097563" />
<line fill="none" stroke="#000000" marker-start = "url(#pointMarker)" x1="200.0" y1="497.5609756097563" x2="200.0" y2="487.8048780487806" />
<line fill="none" stroke="#000000" marker-start = "url(#pointMarker)" x1="200.0" y1="487.8048780487806" x2="199.99999999999994" y2="478.0487804878051" />
<line fill="none" stroke="#000000" marker-start = "url(#pointMarker)" x1="199.99999999999994" y1="478.0487804878051" x2="200.00000000000003" y2="468.29268292682946" />
<line fill="none" stroke="#000000" marker-start = "url(#pointMarker)" x1="200.00000000000003" y1="468.29268292682946" x2="200.0" y2="458.53658536585385" />
<line fill="none" stroke="#000000" marker-start = "url(#pointMarker)" x1="200.0" y1="458.53658536585385" x2="199.99999999999986" y2="448.7804878048783" />
<line fill="none" stroke="#000000" marker-start = "url(#pointMarker)" x1="199.99999999999986" y1="448.7804878048783" x2="199.99999999999997" y2="439.0243902439026" />
<line fill="none" stroke="#000000" marker-start = "url(#pointMarker)" x1="199.99999999999997" y1="439.0243902439026" x2="200.0" y2="429.26829268292704" />
<line fill="none" stroke="#000000" marker-start = "url(#pointMarker)" x1="200.0" y1="429.26829268292704" x2="200.0" y2="419.51219512195144" />
<line fill="none" stroke="#000000" marker-start = "url(#pointMarker)" x1="200.0" y1="419.51219512195144" x2="199.99999999999997" y2="409.75609756097583" />
<line fill="none" stroke="#000000" marker-start = "url(#pointMarker)" x1="199.99999999999997" y1="409.75609756097583" x2="200.00000000000006" y2="400.0000000000002" />
</svg>
