<?xml version="1.0" encoding="utf-8"?>
<!DOCTYPE svg PUBLIC "-//W3C//DTD SVG 1.1//EN" "http://www.w3.org/Graphics/SVG/1.1/DTD/svg11.dtd">
<svg version="1.1" id="Layer_1" xmlns="http://www.w3.org/2000/svg" xmlns:xlink="http://www.w3.org/1999/xlink" x="0px" y="0px" 
	 width="846.0px" height="1200.0px" viewBox="0 0 846.0 1200.0" enable-background="new 0 0 846.0 1200.0" xml:space="preserve">
<marker id = "pointMarker" viewBox = "0 0 12 12" refX = "12" refY = "6" markerWidth = "3" markerHeight = "3" stroke = "green" stroke-width = "2" fill = "none" orient = "auto"> 
<circle cx = "6" cy = "6" r = "5"/>
</marker>
<line fill="none" stroke="#FF0000" stroke-miterlimit="5" x1="423.0" y1="NaN" x2="89.1344430815266" y2="355.9223331050507" />
<line fill="none" stroke="#000000" marker-start = "url(#pointMarker)" x1="89.1344430815266" y1="355.9223331050507" x2="88.73777734454141" y2="354.3127484627243" />
<line fill="none" stroke="#000000" marker-start = "url(#pointMarker)" x1="88.73777734454141" y1="354.3127484627243" x2="88.10303633774275" y2="352.8117904695077" />
<line fill="none" stroke="#000000" marker-start = "url(#pointMarker)" x1="88.10303633774275" y1="352.8117904695077" x2="87.25185284506784" y2="351.4411350595615" />
<line fill="none" stroke="#000000" marker-start = "url(#pointMarker)" x1="87.25185284506784" y1="351.4411350595615" x2="86.20579528808601" y2="350.22220230102533" />
<line fill="none" stroke="#000000" marker-start = "url(#pointMarker)" x1="86.20579528808601" y1="350.22220230102533" x2="84.98647934763032" y2="349.17660120146616" />
<line fill="none" stroke="#000000" marker-start = "url(#pointMarker)" x1="84.98647934763032" y1="349.17660120146616" x2="83.61551014049961" y2="348.3258985592213" />
<line fill="none" stroke="#000000" marker-start = "url(#pointMarker)" x1="83.61551014049961" y1="348.3258985592213" x2="82.11446926799755" y2="347.69156434309224" />
<line fill="none" stroke="#000000" marker-start = "url(#pointMarker)" x1="82.11446926799755" y1="347.69156434309224" x2="80.50496400918814" y2="347.29517397311423" />
<line fill="none" stroke="#FF0000" stroke-miterlimit="5" x1="80.50496400918814" y1="347.29517397311423" x2="78.80859375" y2="347.15826416015625" />
<line fill="none" stroke="#000000" marker-start = "url(#pointMarker)" x1="78.80859375" y1="347.15826416015625" x2="77.11221374643692" y2="347.295152316649" />
<line fill="none" stroke="#000000" marker-start = "url(#pointMarker)" x1="77.11221374643692" y1="347.295152316649" x2="75.50272056628114" y2="347.6915994142537" />
<line fill="none" stroke="#000000" marker-start = "url(#pointMarker)" x1="75.50272056628114" y1="347.6915994142537" x2="74.00167657995513" y2="348.32590535684517" />
<line fill="none" stroke="#000000" marker-start = "url(#pointMarker)" x1="74.00167657995513" y1="348.32590535684517" x2="72.63070937726508" y2="349.17666577218347" />
<line fill="none" stroke="#000000" marker-start = "url(#pointMarker)" x1="72.63070937726508" y1="349.17666577218347" x2="71.41139221191408" y2="350.222225189209" />
<line fill="none" stroke="#000000" marker-start = "url(#pointMarker)" x1="71.41139221191408" y1="350.222225189209" x2="70.36533797148613" y2="351.44111459003625" />
<line fill="none" stroke="#000000" marker-start = "url(#pointMarker)" x1="70.36533797148613" y1="351.44111459003625" x2="69.5141505710411" y2="352.8118234943499" />
<line fill="none" stroke="#000000" marker-start = "url(#pointMarker)" x1="69.5141505710411" y1="352.8118234943499" x2="68.87941447575616" y2="354.31274381378256" />
<line fill="none" stroke="#000000" marker-start = "url(#pointMarker)" x1="68.87941447575616" y1="354.31274381378256" x2="68.48273527638975" y2="355.9223737783726" />
<line fill="none" stroke="#FF0000" stroke-miterlimit="5" x1="68.48273527638975" y1="355.9223737783726" x2="68.34571075439455" y2="357.61917114257807" />
<line fill="none" stroke="#000000" marker-start = "url(#pointMarker)" x1="68.34571075439455" y1="357.61917114257807" x2="64.53683699322407" y2="360.45415649657247" />
<line fill="none" stroke="#000000" marker-start = "url(#pointMarker)" x1="64.53683699322407" y1="360.45415649657247" x2="62.643931819368696" y2="362.72452725835797" />
<line fill="none" stroke="#000000" marker-start = "url(#pointMarker)" x1="62.643931819368696" y1="362.72452725835797" x2="62.353079465429786" y2="364.49283468433686" />
<line fill="none" stroke="#000000" marker-start = "url(#pointMarker)" x1="62.353079465429786" y1="364.49283468433686" x2="63.35041758547996" y2="365.8219379110877" />
<line fill="none" stroke="#000000" marker-start = "url(#pointMarker)" x1="63.35041758547996" y1="365.8219379110877" x2="65.32204055786133" y2="366.7744331359863" />
<line fill="none" stroke="#000000" marker-start = "url(#pointMarker)" x1="65.32204055786133" y1="366.7744331359863" x2="67.95407506793228" y2="367.4131120307313" />
<line fill="none" stroke="#000000" marker-start = "url(#pointMarker)" x1="67.95407506793228" y1="367.4131120307313" x2="70.93264054352801" y2="367.8007229340058" />
<line fill="none" stroke="#000000" marker-start = "url(#pointMarker)" x1="70.93264054352801" y1="367.8007229340058" x2="73.94383751466026" y2="367.9999121264011" />
<line fill="none" stroke="#000000" marker-start = "url(#pointMarker)" x1="73.94383751466026" y1="367.9999121264011" x2="76.67378702236522" y2="368.07343718725576" />
<line fill="none" stroke="#FF0000" stroke-miterlimit="5" x1="76.67378702236522" y1="368.07343718725576" x2="78.80860137939456" y2="368.0840148925781" />
<line fill="none" stroke="#000000" marker-start = "url(#pointMarker)" x1="78.80860137939456" y1="368.0840148925781" x2="78.25337303628582" y2="370.5579637378456" />
<line fill="none" stroke="#000000" marker-start = "url(#pointMarker)" x1="78.25337303628582" y1="370.5579637378456" x2="77.69814469317694" y2="373.0319125831131" />
<line fill="none" stroke="#000000" marker-start = "url(#pointMarker)" x1="77.69814469317694" y1="373.0319125831131" x2="77.67901096977222" y2="375.58580648396264" />
<line fill="none" stroke="#000000" marker-start = "url(#pointMarker)" x1="77.67901096977222" y1="375.58580648396264" x2="78.52165330116674" y2="376.1437737787671" />
<line fill="none" stroke="#000000" marker-start = "url(#pointMarker)" x1="78.52165330116674" y1="376.1437737787671" x2="79.99659035927971" y2="375.104211331485" />
<line fill="none" stroke="#000000" marker-start = "url(#pointMarker)" x1="79.99659035927971" y1="375.104211331485" x2="81.87428569793695" y2="372.86524200439453" />
<line fill="none" stroke="#000000" marker-start = "url(#pointMarker)" x1="81.87428569793695" y1="372.86524200439453" x2="83.92524420036294" y2="369.8251914623773" />
<line fill="none" stroke="#000000" marker-start = "url(#pointMarker)" x1="83.92524420036294" y1="369.8251914623773" x2="85.9199616213475" y2="366.3823403219779" />
<line fill="none" stroke="#000000" marker-start = "url(#pointMarker)" x1="85.9199616213475" y1="366.3823403219779" x2="87.628910368068" y2="362.934866589386" />
<line fill="none" stroke="#000000" marker-start = "url(#pointMarker)" x1="87.628910368068" y1="362.934866589386" x2="88.82258833874022" y2="359.881060184335" />
</svg>
