<?xml version="1.0" encoding="utf-8"?>
<!DOCTYPE svg PUBLIC "-//W3C//DTD SVG 1.1//EN" "http://www.w3.org/Graphics/SVG/1.1/DTD/svg11.dtd">
<svg version="1.1" id="Layer_1" xmlns="http://www.w3.org/2000/svg" xmlns:xlink="http://www.w3.org/1999/xlink" x="0px" y="0px" 
	 width="846.0px" height="1200.0px" viewBox="0 0 846.0 1200.0" enable-background="new 0 0 846.0 1200.0" xml:space="preserve">
<marker id = "pointMarker" viewBox = "0 0 12 12" refX = "12" refY = "6" markerWidth = "3" markerHeight = "3" stroke = "green" stroke-width = "2" fill = "none" orient = "auto"> 
<circle cx = "6" cy = "6" r = "5"/>
</marker>
<line fill="none" stroke="#FF0000" stroke-miterlimit="5" x1="423.0" y1="NaN" x2="273.39658984374995" y2="25.76371737480236" />
<line fill="none" stroke="#000000" marker-start = "url(#pointMarker)" x1="273.39658984374995" y1="25.76371737480236" x2="273.13115625000006" y2="24.687143859863433" />
<line fill="none" stroke="#000000" marker-start = "url(#pointMarker)" x1="273.13115625000006" y1="24.687143859863433" x2="272.70644140625006" y2="23.683156328200646" />
<line fill="none" stroke="#000000" marker-start = "url(#pointMarker)" x1="272.70644140625006" y1="23.683156328200646" x2="272.13690625000004" y2="22.766192245483243" />
<line fill="none" stroke="#000000" marker-start = "url(#pointMarker)" x1="272.13690625000004" y1="22.766192245483243" x2="271.43701171875" y2="21.950689077377298" />
<line fill="none" stroke="#000000" marker-start = "url(#pointMarker)" x1="271.43701171875" y1="21.950689077377298" x2="270.62121874999997" y2="21.251084289551404" />
<line fill="none" stroke="#000000" marker-start = "url(#pointMarker)" x1="270.62121874999997" y1="21.251084289551404" x2="269.70398828124996" y2="20.68181534767133" />
<line fill="none" stroke="#000000" marker-start = "url(#pointMarker)" x1="269.70398828124996" y1="20.68181534767133" x2="268.69978124999994" y2="20.25731971740743" />
<line fill="none" stroke="#000000" marker-start = "url(#pointMarker)" x1="268.69978124999994" y1="20.25731971740743" x2="267.62305859374993" y2="19.99203486442595" />
<line fill="none" stroke="#FF0000" stroke-miterlimit="5" x1="267.62305859374993" y1="19.99203486442595" x2="266.48828125" y2="19.900398254394165" />
<line fill="none" stroke="#000000" marker-start = "url(#pointMarker)" x1="266.48828125" y1="19.900398254394165" x2="266.57997265625005" y2="21.035651597976727" />
<line fill="none" stroke="#000000" marker-start = "url(#pointMarker)" x1="266.57997265625005" y1="21.035651597976727" x2="266.8454062500001" y2="22.112650451659878" />
<line fill="none" stroke="#000000" marker-start = "url(#pointMarker)" x1="266.8454062500001" y1="22.112650451659878" x2="267.27012109374994" y2="23.116969137191713" />
<line fill="none" stroke="#000000" marker-start = "url(#pointMarker)" x1="267.27012109374994" y1="23.116969137191713" x2="267.83965624999996" y2="24.034181976318795" />
<line fill="none" stroke="#000000" marker-start = "url(#pointMarker)" x1="267.83965624999996" y1="24.034181976318795" x2="268.53955078125006" y2="24.849863290786576" />
<line fill="none" stroke="#000000" marker-start = "url(#pointMarker)" x1="268.53955078125006" y1="24.849863290786576" x2="269.35534375000003" y2="25.54958740234327" />
<line fill="none" stroke="#000000" marker-start = "url(#pointMarker)" x1="269.35534375000003" y1="25.54958740234327" x2="270.2725742187499" y2="26.118928632737102" />
<line fill="none" stroke="#000000" marker-start = "url(#pointMarker)" x1="270.2725742187499" y1="26.118928632737102" x2="271.27678124999994" y2="26.543461303711165" />
<line fill="none" stroke="#000000" marker-start = "url(#pointMarker)" x1="271.27678124999994" y1="26.543461303711165" x2="272.3535039062499" y2="26.808759737015546" />
<line fill="none" stroke="#FF0000" stroke-miterlimit="5" x1="272.3535039062499" y1="26.808759737015546" x2="269.99218749999994" y2="29.228519439697763" />
<line fill="none" stroke="#000000" marker-start = "url(#pointMarker)" x1="269.99218749999994" y1="29.228519439697763" x2="269.93348437500003" y2="29.186178817749184" />
<line fill="none" stroke="#000000" marker-start = "url(#pointMarker)" x1="269.93348437500003" y1="29.186178817749184" x2="269.86850000000004" y2="29.156296463013366" />
<line fill="none" stroke="#000000" marker-start = "url(#pointMarker)" x1="269.86850000000004" y1="29.156296463013366" x2="269.7986874999999" y2="29.13867290496871" />
<line fill="none" stroke="#000000" marker-start = "url(#pointMarker)" x1="269.7986874999999" y1="29.13867290496871" x2="269.72550000000007" y2="29.13310867309552" />
<line fill="none" stroke="#000000" marker-start = "url(#pointMarker)" x1="269.72550000000007" y1="29.13310867309552" x2="269.650390625" y2="29.139404296875" />
<line fill="none" stroke="#000000" marker-start = "url(#pointMarker)" x1="269.650390625" y1="29.139404296875" x2="269.5748125" y2="29.157360305785822" />
<line fill="none" stroke="#000000" marker-start = "url(#pointMarker)" x1="269.5748125" y1="29.157360305785822" x2="269.50021874999993" y2="29.186777229309442" />
<line fill="none" stroke="#000000" marker-start = "url(#pointMarker)" x1="269.50021874999993" y1="29.186777229309442" x2="269.42806249999995" y2="29.2274555969242" />
<line fill="none" stroke="#000000" marker-start = "url(#pointMarker)" x1="269.42806249999995" y1="29.2274555969242" x2="269.35979687500003" y2="29.279195938109982" />
<line fill="none" stroke="#FF0000" stroke-miterlimit="5" x1="269.35979687500003" y1="29.279195938109982" x2="269.29687500000006" y2="29.341798782348075" />
<line fill="none" stroke="#000000" marker-start = "url(#pointMarker)" x1="269.29687500000006" y1="29.341798782348075" x2="269.2416796875001" y2="29.41168667221067" />
<line fill="none" stroke="#000000" marker-start = "url(#pointMarker)" x1="269.2416796875001" y1="29.41168667221067" x2="269.19796875000003" y2="29.485606109619468" />
<line fill="none" stroke="#000000" marker-start = "url(#pointMarker)" x1="269.19796875000003" y1="29.485606109619468" x2="269.1657421875" y2="29.562080600738646" />
<line fill="none" stroke="#000000" marker-start = "url(#pointMarker)" x1="269.1657421875" y1="29.562080600738646" x2="269.14500000000004" y2="29.639633651733323" />
<line fill="none" stroke="#000000" marker-start = "url(#pointMarker)" x1="269.14500000000004" y1="29.639633651733323" x2="269.13574218749994" y2="29.716788768768918" />
<line fill="none" stroke="#000000" marker-start = "url(#pointMarker)" x1="269.13574218749994" y1="29.716788768768918" x2="269.13796874999997" y2="29.792069458008104" />
<line fill="none" stroke="#000000" marker-start = "url(#pointMarker)" x1="269.13796874999997" y1="29.792069458008104" x2="269.1516796875" y2="29.86399922561655" />
<line fill="none" stroke="#000000" marker-start = "url(#pointMarker)" x1="269.1516796875" y1="29.86399922561655" x2="269.176875" y2="29.9311015777589" />
<line fill="none" stroke="#000000" marker-start = "url(#pointMarker)" x1="269.176875" y1="29.9311015777589" x2="269.21355468749994" y2="29.991900020600117" />
<line fill="none" stroke="#FF0000" stroke-miterlimit="5" x1="269.21355468749994" y1="29.991900020600117" x2="269.26171875000006" y2="30.04491806030225" />
<line fill="none" stroke="#000000" marker-start = "url(#pointMarker)" x1="269.26171875000006" y1="30.04491806030225" x2="273.27540588378906" y2="34.21483802795384" />
<line fill="none" stroke="#000000" marker-start = "url(#pointMarker)" x1="273.27540588378906" y1="34.21483802795384" x2="277.28909301757807" y2="38.38475799560604" />
<line fill="none" stroke="#000000" marker-start = "url(#pointMarker)" x1="277.28909301757807" y1="38.38475799560604" x2="279.1836242675781" y2="36.25975799560527" />
<line fill="none" stroke="#000000" marker-start = "url(#pointMarker)" x1="279.1836242675781" y1="36.25975799560527" x2="274.58792114257807" y2="32.74413776397759" />
<line fill="none" stroke="#000000" marker-start = "url(#pointMarker)" x1="274.58792114257807" y1="32.74413776397759" x2="269.9922180175782" y2="29.22851753234832" />
<line fill="none" stroke="#FF0000" stroke-miterlimit="5" x1="269.9922180175782" y1="29.22851753234832" x2="224.74415588378903" y2="490.09960937499994" />
<line fill="none" stroke="#000000" marker-start = "url(#pointMarker)" x1="224.74415588378903" y1="490.09960937499994" x2="224.5679621124268" y2="487.9173984375001" />
<line fill="none" stroke="#000000" marker-start = "url(#pointMarker)" x1="224.5679621124268" y1="487.9173984375001" x2="224.05788879394532" y2="485.84707812500017" />
<line fill="none" stroke="#000000" marker-start = "url(#pointMarker)" x1="224.05788879394532" y1="485.84707812500017" x2="223.24169792175303" y2="483.91639843749994" />
<line fill="none" stroke="#000000" marker-start = "url(#pointMarker)" x1="223.24169792175303" y1="483.91639843749994" x2="222.14715148925782" y2="482.1531093750001" />
<line fill="none" stroke="#000000" marker-start = "url(#pointMarker)" x1="222.14715148925782" y1="482.1531093750001" x2="220.80201148986816" y2="480.58496093750006" />
<line fill="none" stroke="#000000" marker-start = "url(#pointMarker)" x1="220.80201148986816" y1="480.58496093750006" x2="219.23403991699215" y2="479.23970312499995" />
<line fill="none" stroke="#000000" marker-start = "url(#pointMarker)" x1="219.23403991699215" y1="479.23970312499995" x2="217.47099876403811" y2="478.1450859375" />
<line fill="none" stroke="#000000" marker-start = "url(#pointMarker)" x1="217.47099876403811" y1="478.1450859375" x2="215.54065002441408" y2="477.328859375" />
<line fill="none" stroke="#000000" marker-start = "url(#pointMarker)" x1="215.54065002441408" y1="477.328859375" x2="213.4707556915283" y2="476.8187734375" />
<line fill="none" stroke="#FF0000" stroke-miterlimit="5" x1="213.4707556915283" y1="476.8187734375" x2="211.2890777587891" y2="476.64257812500006" />
<line fill="none" stroke="#000000" marker-start = "url(#pointMarker)" x1="211.2890777587891" y1="476.64257812500006" x2="211.46527153015145" y2="478.8238472595216" />
<line fill="none" stroke="#000000" marker-start = "url(#pointMarker)" x1="211.46527153015145" y1="478.8238472595216" x2="211.97534484863294" y2="480.89362109375" />
<line fill="none" stroke="#000000" marker-start = "url(#pointMarker)" x1="211.97534484863294" y1="480.89362109375" x2="212.79153572082507" y2="482.8240798645018" />
<line fill="none" stroke="#000000" marker-start = "url(#pointMarker)" x1="212.79153572082507" y1="482.8240798645018" x2="213.8860821533203" y2="484.5874038085938" />
<line fill="none" stroke="#000000" marker-start = "url(#pointMarker)" x1="213.8860821533203" y1="484.5874038085938" x2="215.23122215270993" y2="486.15577316284174" />
<line fill="none" stroke="#000000" marker-start = "url(#pointMarker)" x1="215.23122215270993" y1="486.15577316284174" x2="216.79919372558575" y2="487.50136816406246" />
<line fill="none" stroke="#000000" marker-start = "url(#pointMarker)" x1="216.79919372558575" y1="487.50136816406246" x2="218.56223487854004" y2="488.5963690490722" />
<line fill="none" stroke="#000000" marker-start = "url(#pointMarker)" x1="218.56223487854004" y1="488.5963690490722" x2="220.49258361816402" y2="489.41295605468747" />
<line fill="none" stroke="#000000" marker-start = "url(#pointMarker)" x1="220.49258361816402" y1="489.41295605468747" x2="222.56247795104983" y2="489.9233094177245" />
</svg>
